<svg xmlns="http://www.w3.org/2000/svg" width="32" height="32" viewBox="0 0 32 32">
  <defs>
    <linearGradient id="g" x1="0%" y1="0%" x2="100%" y2="100%">
      <stop offset="0%" stop-color="#00bcd4"/>
      <stop offset="100%" stop-color="#00e676"/>
    </linearGradient>
  </defs>
  <rect width="32" height="32" rx="8" fill="#0a0e1a"/>
  <g transform="translate(5,3)">
    <!-- Pin -->
    <path d="M11 0C7.13 0 4 3.13 4 7c0 5.25 7 11 7 11s7-5.75 7-11c0-3.87-3.13-7-7-7z" fill="url(#g)" opacity="0.3"/>
    <path d="M11 2C8.24 2 6 4.24 6 7c0 3.53 5 7.63 5 7.63s5-4.1 5-7.63c0-2.76-2.24-5-5-5z" fill="url(#g)"/>
    <!-- Bus icon inside pin -->
    <rect x="8" y="5.5" width="6" height="4" rx="1" fill="#0a0e1a"/>
    <rect x="8.5" y="6" width="2" height="1.5" rx="0.5" fill="#00e676"/>
    <rect x="11.5" y="6" width="2" height="1.5" rx="0.5" fill="#00e676"/>
    <rect x="8.5" y="8.2" width="5" height="1" rx="0.3" fill="#00bcd4"/>
    <!-- Wheels -->
    <circle cx="9.5" cy="9.8" r="0.6" fill="#0a0e1a"/>
    <circle cx="12.5" cy="9.8" r="0.6" fill="#0a0e1a"/>
  </g>
</svg>
